<?xml version="1.0" encoding="utf-8"?>
<!-- Generator: Adobe Illustrator 16.0.0, SVG Export Plug-In . SVG Version: 6.00 Build 0)  -->
<!DOCTYPE svg PUBLIC "-//W3C//DTD SVG 1.1//EN" "http://www.w3.org/Graphics/SVG/1.1/DTD/svg11.dtd">
<svg version="1.1" xmlns="http://www.w3.org/2000/svg" xmlns:xlink="http://www.w3.org/1999/xlink" x="0px" y="0px" width="64px"
	 height="64px" viewBox="0 0 64 64" enable-background="new 0 0 64 64" xml:space="preserve">
<g id="Layer_1" display="none">
	<ellipse display="inline" cx="18.333" cy="7.802" rx="6.003" ry="0.264"/>
	<circle display="inline" cx="18.067" cy="7.733" r="6"/>
	<path display="inline" d="M22.357,4.57c0,0.109,0.088,0.198,0.198,0.198h5.277c0.109,0,0.198-0.088,0.198-0.198l0,0
		c0-0.109-0.088-0.198-0.198-0.198h-5.277C22.445,4.372,22.357,4.46,22.357,4.57L22.357,4.57z"/>
	<path display="inline" d="M28.03,4.778c0,0.552-0.448,1-1,1h-3.673c-0.552,0-1-0.448-1-1l0,0c0-0.552,0.448-1,1-1h3.673
		C27.582,3.778,28.03,4.226,28.03,4.778L28.03,4.778z"/>
	<polygon display="inline" points="20.246,12.419 20.246,12.419 20.51,12.419 20.51,12.419 20.51,12.419 20.51,12.419 
		20.246,12.419 20.246,12.419 	"/>
	<path display="inline" d="M18.75,15.75c0,0,2.375,1.25,2.5,2.625s3.5,7.125,3.5,7.125L30,28.875c0,0,2.25,5.25-2.625,4.25l-6.625-4
		l-1.5-2.5l-2.125,8.125l5.25,8.875l1.75,14.75c0,0-1.25,5.125-6.125,0.375l-1.5-12.375l-3.625-6L12.125,48L6.75,59.75
		c0,0-4.75,3.75-5-3.625L6.25,46l0.375-9.5c0,0,0.125-4.75,1.125-4.75l3.25-13"/>
	<path display="inline" d="M47,56.125L46.375,53l15-4.125c0,0,2.625,0.625,1,2.75L47,56.125z"/>
	<ellipse fill="none" stroke="#000000" stroke-width="9" stroke-miterlimit="10" cx="40.062" cy="53.625" rx="4.938" ry="0.125"/>
</g>
<g id="Layer_2">
	<circle cx="18.256" cy="7.625" r="6"/>
	<path d="M28.219,4.67c0,0.552-0.486,1-1.087,1h-3.99c-0.601,0-1.087-0.448-1.087-1l0,0c0-0.552,0.486-1,1.087-1h3.99
		C27.732,3.67,28.219,4.118,28.219,4.67L28.219,4.67z"/>
	<path display="none" d="M30,28.875L24.75,25.5c0,0-2.413-4.916-3.5-7.125c-0.604-1.229-1.636-2.26-2.458-2.521
		s-3.854-0.521-5.042-0.104c-1.345,0.471-2.458,1.979-2.75,3s-3.25,13-3.25,13c-0.016,0-0.029,0.014-0.045,0.016
		c-0.228,1.73-0.909,3.326-1.057,4.217s0.04-0.546-0.023,0.517S6.25,46,6.25,46l-4.5,10.125c0.25,7.375,5,3.625,5,3.625L12.125,48
		l0.75-7.625l3.625,6L18,58.75c4.875,4.75,6.125-0.375,6.125-0.375l-1.75-14.75l-5.25-8.875l2.125-8.125l1.5,2.5l6.625,4
		C32.25,34.125,30,28.875,30,28.875z"/>
	<path d="M41.831,30.21l2.165,4.713l1.136-1.904l2.269,0.388l-2.051-4.73l4.648-1.806c0,0,2.374-0.327,2.981,1.338
		c0.555,1.522,4.985,11.668,4.985,11.668s1.625,1.641-1.208,3.081c-2.831,1.438-11.817,5.59-11.817,5.59s-2.142,0.527-3.211-1.308
		c-1.068-1.834-5.277-12.094-5.277-12.094s-0.398-2.044,0.91-2.689C38.672,31.811,41.831,30.21,41.831,30.21z"/>
	<path d="M6.747,60.188c-0.667,1.585-2.492,2.328-4.079,1.66l0,0c-1.585-0.666-2.329-2.492-1.661-4.077l4.628-10.991
		c0.667-1.586,2.493-2.33,4.079-1.662l0,0c1.586,0.667,2.329,2.494,1.662,4.079L6.747,60.188z"/>
	<path d="M24.333,57.547c0.289,2.04-0.903,3.896-2.662,4.146l0,0c-1.759,0.249-3.42-1.202-3.709-3.242l-1.448-10.208
		c-0.289-2.04,0.903-3.896,2.662-4.146l0,0c1.759-0.25,3.42,1.201,3.709,3.241L24.333,57.547z"/>
	<path d="M38.299,47.152c0.343,0.707-0.009,1.585-0.785,1.962l0,0c-0.776,0.376-1.684,0.109-2.026-0.599l-6.411-13.213
		c-0.343-0.707,0.008-1.586,0.785-1.963l0,0c0.777-0.376,1.684-0.109,2.027,0.6L38.299,47.152z"/>
	<path d="M62.805,44.971c-0.301-0.622-1.098-0.858-1.78-0.526l-14.716,7.113c-0.683,0.331-0.993,1.104-0.692,1.725l0,0
		c0.301,0.621,1.1,0.857,1.781,0.526l14.716-7.113C62.795,46.364,63.105,45.592,62.805,44.971L62.805,44.971z"/>
	<path d="M30.491,32.454c-0.813,1.203-2.194,1.69-3.083,1.089l-6.025-4.077c-0.888-0.601-0.95-2.063-0.137-3.265l0,0
		c0.812-1.202,2.193-1.69,3.082-1.089l6.024,4.077C31.241,29.79,31.304,31.253,30.491,32.454L30.491,32.454z"/>
	<path d="M16.201,37.233c-0.738,2.416-3.514,3.708-6.202,2.889l0,0c-2.687-0.82-4.268-3.446-3.53-5.86l4.822-15.791
		c0.738-2.414,3.514-3.707,6.202-2.886l0,0c2.687,0.821,4.267,3.443,3.529,5.858L16.201,37.233z"/>
	<path d="M24.94,25.979c0.599,1.134,0.106,2.569-1.1,3.207l0,0c-1.206,0.638-2.67,0.236-3.27-0.897l-3.719-7.038
		c-0.599-1.133-0.106-2.569,1.1-3.207l0,0c1.206-0.638,2.67-0.235,3.27,0.897L24.94,25.979z"/>
	<path d="M21.318,44.459c0.828,0.979,0.545,2.58-0.634,3.577l0,0c-1.178,0.996-2.805,1.012-3.633,0.034l-5.938-7.019
		c-0.828-0.979-0.543-2.58,0.634-3.578l0,0c1.179-0.995,2.805-1.011,3.632-0.032L21.318,44.459z"/>
	<path d="M11.81,47.75c-0.111,1.552-1.627,2.71-3.389,2.584l0,0c-1.761-0.128-3.098-1.488-2.986-3.041l0.798-11.136
		c0.112-1.552,1.629-2.709,3.389-2.584l0,0c1.761,0.128,3.099,1.49,2.987,3.042L11.81,47.75z"/>
	<ellipse fill="none" stroke="#000000" stroke-width="3" stroke-miterlimit="10" cx="39.377" cy="56" rx="4.511" ry="4.625"/>
</g>
</svg>
