<?xml version="1.0" encoding="utf-8"?>
<!-- Generator: Adobe Illustrator 16.0.0, SVG Export Plug-In . SVG Version: 6.00 Build 0)  -->
<!DOCTYPE svg PUBLIC "-//W3C//DTD SVG 1.1//EN" "http://www.w3.org/Graphics/SVG/1.1/DTD/svg11.dtd">
<svg version="1.1" id="Layer_2" xmlns="http://www.w3.org/2000/svg" xmlns:xlink="http://www.w3.org/1999/xlink" x="0px" y="0px"
	 width="64px" height="64px" viewBox="0 0 64 64" enable-background="new 0 0 64 64" xml:space="preserve">
<circle cx="18.256" cy="7.625" r="6"/>
<path d="M28.219,4.67c0,0.552-0.486,1-1.087,1h-3.99c-0.601,0-1.087-0.448-1.087-1l0,0c0-0.552,0.486-1,1.087-1h3.99
	C27.732,3.67,28.219,4.118,28.219,4.67L28.219,4.67z"/>
<path display="none" d="M30,28.875L24.75,25.5c0,0-2.413-4.916-3.5-7.125c-0.604-1.229-1.636-2.26-2.458-2.521
	s-3.854-0.521-5.042-0.104c-1.345,0.471-2.458,1.979-2.75,3s-3.25,13-3.25,13c-0.016,0-0.029,0.014-0.045,0.016
	c-0.228,1.73-0.909,3.326-1.057,4.217s0.04-0.546-0.023,0.517S6.25,46,6.25,46l-4.5,10.125c0.25,7.375,5,3.625,5,3.625L12.125,48
	l0.75-7.625l3.625,6L18,58.75c4.875,4.75,6.125-0.375,6.125-0.375l-1.75-14.75l-5.25-8.875l2.125-8.125l1.5,2.5l6.625,4
	C32.25,34.125,30,28.875,30,28.875z"/>
<path d="M40.558,31.421l2.337,4.63l1.065-1.945l2.281,0.304l-2.225-4.651l4.579-1.977c0,0,2.36-0.414,3.028,1.227
	c0.61,1.501,5.413,11.477,5.413,11.477s1.685,1.579-1.093,3.123c-2.776,1.542-11.604,6.022-11.604,6.022s-2.12,0.606-3.257-1.188
	c-1.136-1.793-5.721-11.891-5.721-11.891s-0.474-2.028,0.811-2.722C37.459,33.137,40.558,31.421,40.558,31.421z"/>
<path d="M6.747,60.188c-0.667,1.585-2.492,2.328-4.079,1.66l0,0c-1.585-0.666-2.329-2.492-1.661-4.077l4.628-10.991
	c0.667-1.586,2.493-2.33,4.079-1.662l0,0c1.586,0.667,2.329,2.494,1.662,4.079L6.747,60.188z"/>
<path d="M24.333,57.547c0.289,2.04-0.903,3.896-2.662,4.146l0,0c-1.759,0.249-3.42-1.202-3.709-3.242l-1.448-10.208
	c-0.289-2.04,0.903-3.896,2.662-4.146l0,0c1.759-0.25,3.42,1.201,3.709,3.241L24.333,57.547z"/>
<path d="M38.299,47.152c0.343,0.707-0.009,1.585-0.785,1.962l0,0c-0.776,0.376-1.684,0.109-2.026-0.599l-6.411-13.213
	c-0.343-0.707,0.008-1.586,0.785-1.963l0,0c0.777-0.376,1.684-0.109,2.027,0.6L38.299,47.152z"/>
<path d="M61.325,43.764c-0.315-0.615-1.118-0.832-1.792-0.484l-14.538,7.47c-0.675,0.348-0.967,1.128-0.65,1.74l0,0
	c0.315,0.614,1.121,0.831,1.794,0.484l14.538-7.469C61.35,45.156,61.642,44.376,61.325,43.764L61.325,43.764z"/>
<path d="M30.491,32.454c-0.813,1.203-2.194,1.69-3.083,1.089l-6.025-4.077c-0.888-0.601-0.95-2.063-0.137-3.265l0,0
	c0.812-1.202,2.193-1.69,3.082-1.089l6.024,4.077C31.241,29.79,31.304,31.253,30.491,32.454L30.491,32.454z"/>
<path d="M16.201,37.233c-0.738,2.416-3.514,3.708-6.202,2.889l0,0c-2.687-0.82-4.268-3.446-3.53-5.86l4.822-15.791
	c0.738-2.414,3.514-3.707,6.202-2.886l0,0c2.687,0.821,4.267,3.443,3.529,5.858L16.201,37.233z"/>
<path d="M24.94,25.979c0.599,1.134,0.106,2.569-1.1,3.207l0,0c-1.206,0.638-2.67,0.236-3.27-0.897l-3.719-7.038
	c-0.599-1.133-0.106-2.569,1.1-3.207l0,0c1.206-0.638,2.67-0.235,3.27,0.897L24.94,25.979z"/>
<path d="M21.318,44.459c0.828,0.979,0.545,2.58-0.634,3.577l0,0c-1.178,0.996-2.805,1.012-3.633,0.034l-5.938-7.019
	c-0.828-0.979-0.543-2.58,0.634-3.578l0,0c1.179-0.995,2.805-1.011,3.632-0.032L21.318,44.459z"/>
<path d="M11.81,47.75c-0.111,1.552-1.627,2.71-3.389,2.584l0,0c-1.761-0.128-3.098-1.488-2.986-3.041l0.798-11.136
	c0.112-1.552,1.629-2.709,3.389-2.584l0,0c1.761,0.128,3.099,1.49,2.987,3.042L11.81,47.75z"/>
<g>
	<g>
		<path d="M38.375,62.688c-3.377,0-6.125-2.804-6.125-6.25s2.748-6.25,6.125-6.25s6.125,2.804,6.125,6.25
			S41.752,62.688,38.375,62.688z M38.375,53.188c-1.723,0-3.125,1.458-3.125,3.25s1.402,3.25,3.125,3.25s3.125-1.458,3.125-3.25
			S40.098,53.188,38.375,53.188z"/>
	</g>
</g>
</svg>
